<mxfile host="Electron" agent="Mozilla/5.0 (Windows NT 10.0; Win64; x64) AppleWebKit/537.36 (KHTML, like Gecko) draw.io/26.0.9 Chrome/128.0.6613.186 Electron/32.2.5 Safari/537.36" version="26.0.9">
  <diagram name="Страница — 1" id="DN9imDgXIA0uF62SA5jy">
    <mxGraphModel dx="1434" dy="836" grid="0" gridSize="10" guides="1" tooltips="1" connect="1" arrows="1" fold="1" page="1" pageScale="1" pageWidth="827" pageHeight="1169" math="0" shadow="0">
      <root>
        <mxCell id="0" />
        <mxCell id="1" parent="0" />
        <mxCell id="2Mn2ASOwUe4LuWI35HA7-2" value="" style="edgeStyle=orthogonalEdgeStyle;rounded=0;orthogonalLoop=1;jettySize=auto;html=1;" parent="1" source="2Mn2ASOwUe4LuWI35HA7-3" edge="1">
          <mxGeometry relative="1" as="geometry">
            <mxPoint x="379" y="80" as="targetPoint" />
          </mxGeometry>
        </mxCell>
        <mxCell id="2Mn2ASOwUe4LuWI35HA7-3" value="Начало" style="ellipse;whiteSpace=wrap;html=1;" parent="1" vertex="1">
          <mxGeometry x="319" y="10" width="120" height="40" as="geometry" />
        </mxCell>
        <mxCell id="2Mn2ASOwUe4LuWI35HA7-4" value="" style="edgeStyle=orthogonalEdgeStyle;rounded=0;orthogonalLoop=1;jettySize=auto;html=1;" parent="1" source="2Mn2ASOwUe4LuWI35HA7-5" edge="1">
          <mxGeometry relative="1" as="geometry">
            <mxPoint x="379" y="130" as="targetPoint" />
          </mxGeometry>
        </mxCell>
        <mxCell id="2Mn2ASOwUe4LuWI35HA7-5" value="int main()" style="shape=process;whiteSpace=wrap;html=1;backgroundOutline=1;" parent="1" vertex="1">
          <mxGeometry x="319" y="80" width="120" height="30" as="geometry" />
        </mxCell>
        <mxCell id="2Mn2ASOwUe4LuWI35HA7-26" style="edgeStyle=orthogonalEdgeStyle;rounded=0;orthogonalLoop=1;jettySize=auto;html=1;exitX=0.5;exitY=1;exitDx=0;exitDy=0;entryX=0.5;entryY=0;entryDx=0;entryDy=0;" parent="1" source="2Mn2ASOwUe4LuWI35HA7-8" target="2Mn2ASOwUe4LuWI35HA7-25" edge="1">
          <mxGeometry relative="1" as="geometry" />
        </mxCell>
        <mxCell id="2Mn2ASOwUe4LuWI35HA7-8" value="setlocale(LC_ALL, &quot;Russian&quot;);" style="rounded=0;whiteSpace=wrap;html=1;" parent="1" vertex="1">
          <mxGeometry x="319" y="130" width="120" height="30" as="geometry" />
        </mxCell>
        <mxCell id="2Mn2ASOwUe4LuWI35HA7-9" value="" style="edgeStyle=orthogonalEdgeStyle;rounded=0;orthogonalLoop=1;jettySize=auto;html=1;" parent="1" edge="1">
          <mxGeometry relative="1" as="geometry">
            <mxPoint x="379" y="220" as="sourcePoint" />
            <mxPoint x="379" y="240" as="targetPoint" />
          </mxGeometry>
        </mxCell>
        <mxCell id="2Mn2ASOwUe4LuWI35HA7-10" value="&lt;div&gt;#include &amp;lt;iostream&amp;gt;&lt;/div&gt;&lt;div&gt;using namespace std;&lt;/div&gt;&lt;div&gt;&lt;div&gt;int n;&lt;/div&gt;&lt;/div&gt;&lt;div&gt;int step = 1;&lt;br&gt;&lt;/div&gt;" style="strokeWidth=2;html=1;shape=mxgraph.flowchart.annotation_2;align=left;labelPosition=right;pointerEvents=1;" parent="1" vertex="1">
          <mxGeometry x="459" y="10" width="50" height="100" as="geometry" />
        </mxCell>
        <mxCell id="2Mn2ASOwUe4LuWI35HA7-11" value="" style="endArrow=none;dashed=1;html=1;rounded=0;entryX=-0.04;entryY=0.503;entryDx=0;entryDy=0;entryPerimeter=0;" parent="1" target="2Mn2ASOwUe4LuWI35HA7-10" edge="1">
          <mxGeometry width="50" height="50" relative="1" as="geometry">
            <mxPoint x="379" y="60" as="sourcePoint" />
            <mxPoint x="449" y="60" as="targetPoint" />
          </mxGeometry>
        </mxCell>
        <mxCell id="2Mn2ASOwUe4LuWI35HA7-12" value="cout &amp;lt;&amp;lt; &quot;Введите количество дисков: &quot;;" style="shape=parallelogram;perimeter=parallelogramPerimeter;whiteSpace=wrap;html=1;fixedSize=1;" parent="1" vertex="1">
          <mxGeometry x="260" y="240" width="240" height="40" as="geometry" />
        </mxCell>
        <mxCell id="2Mn2ASOwUe4LuWI35HA7-13" value="" style="edgeStyle=orthogonalEdgeStyle;rounded=0;orthogonalLoop=1;jettySize=auto;html=1;" parent="1" edge="1">
          <mxGeometry relative="1" as="geometry">
            <mxPoint x="379" y="280" as="sourcePoint" />
            <mxPoint x="379" y="300" as="targetPoint" />
          </mxGeometry>
        </mxCell>
        <mxCell id="2Mn2ASOwUe4LuWI35HA7-15" style="edgeStyle=orthogonalEdgeStyle;rounded=0;orthogonalLoop=1;jettySize=auto;html=1;exitX=0.5;exitY=1;exitDx=0;exitDy=0;" parent="1" source="2Mn2ASOwUe4LuWI35HA7-14" edge="1">
          <mxGeometry relative="1" as="geometry">
            <mxPoint x="379.8571428571429" y="370" as="targetPoint" />
          </mxGeometry>
        </mxCell>
        <mxCell id="2Mn2ASOwUe4LuWI35HA7-14" value="cin &amp;gt;&amp;gt; n;" style="shape=parallelogram;perimeter=parallelogramPerimeter;whiteSpace=wrap;html=1;fixedSize=1;" parent="1" vertex="1">
          <mxGeometry x="260" y="300" width="240" height="40" as="geometry" />
        </mxCell>
        <mxCell id="2Mn2ASOwUe4LuWI35HA7-17" style="edgeStyle=orthogonalEdgeStyle;rounded=0;orthogonalLoop=1;jettySize=auto;html=1;exitX=0;exitY=0.5;exitDx=0;exitDy=0;" parent="1" source="2Mn2ASOwUe4LuWI35HA7-16" edge="1">
          <mxGeometry relative="1" as="geometry">
            <mxPoint x="270" y="470" as="targetPoint" />
          </mxGeometry>
        </mxCell>
        <mxCell id="2Mn2ASOwUe4LuWI35HA7-19" style="edgeStyle=orthogonalEdgeStyle;rounded=0;orthogonalLoop=1;jettySize=auto;html=1;exitX=1;exitY=0.5;exitDx=0;exitDy=0;" parent="1" source="2Mn2ASOwUe4LuWI35HA7-16" edge="1">
          <mxGeometry relative="1" as="geometry">
            <mxPoint x="390" y="540" as="targetPoint" />
            <Array as="points">
              <mxPoint x="490" y="410" />
              <mxPoint x="490" y="540" />
            </Array>
          </mxGeometry>
        </mxCell>
        <mxCell id="2Mn2ASOwUe4LuWI35HA7-16" value="&amp;nbsp;if (n &amp;lt; 1)" style="rhombus;whiteSpace=wrap;html=1;" parent="1" vertex="1">
          <mxGeometry x="340" y="370" width="80" height="80" as="geometry" />
        </mxCell>
        <mxCell id="2Mn2ASOwUe4LuWI35HA7-20" style="edgeStyle=orthogonalEdgeStyle;rounded=0;orthogonalLoop=1;jettySize=auto;html=1;exitX=0.5;exitY=1;exitDx=0;exitDy=0;" parent="1" source="2Mn2ASOwUe4LuWI35HA7-18" edge="1">
          <mxGeometry relative="1" as="geometry">
            <mxPoint x="390" y="540" as="targetPoint" />
            <Array as="points">
              <mxPoint x="275" y="540" />
            </Array>
          </mxGeometry>
        </mxCell>
        <mxCell id="2Mn2ASOwUe4LuWI35HA7-18" value="cout &amp;lt;&amp;lt; &quot;Некорректное число дисков.&quot; &amp;lt;&amp;lt; endl;" style="shape=parallelogram;perimeter=parallelogramPerimeter;whiteSpace=wrap;html=1;fixedSize=1;" parent="1" vertex="1">
          <mxGeometry x="130" y="470" width="290" height="40" as="geometry" />
        </mxCell>
        <mxCell id="2Mn2ASOwUe4LuWI35HA7-27" style="edgeStyle=orthogonalEdgeStyle;rounded=0;orthogonalLoop=1;jettySize=auto;html=1;exitX=0.5;exitY=1;exitDx=0;exitDy=0;" parent="1" source="2Mn2ASOwUe4LuWI35HA7-23" edge="1">
          <mxGeometry relative="1" as="geometry">
            <mxPoint x="380" y="229.9999999999999" as="targetPoint" />
            <Array as="points">
              <mxPoint x="390" y="670" />
              <mxPoint x="110" y="670" />
              <mxPoint x="110" y="230" />
            </Array>
          </mxGeometry>
        </mxCell>
        <mxCell id="2Mn2ASOwUe4LuWI35HA7-31" style="edgeStyle=orthogonalEdgeStyle;rounded=0;orthogonalLoop=1;jettySize=auto;html=1;exitX=1;exitY=0.5;exitDx=0;exitDy=0;entryX=0.5;entryY=0;entryDx=0;entryDy=0;" parent="1" source="2Mn2ASOwUe4LuWI35HA7-23" edge="1">
          <mxGeometry relative="1" as="geometry">
            <mxPoint x="570" y="680" as="targetPoint" />
          </mxGeometry>
        </mxCell>
        <mxCell id="2Mn2ASOwUe4LuWI35HA7-23" value="while (n &amp;lt; 1);" style="rhombus;whiteSpace=wrap;html=1;" parent="1" vertex="1">
          <mxGeometry x="350" y="570" width="80" height="80" as="geometry" />
        </mxCell>
        <mxCell id="2Mn2ASOwUe4LuWI35HA7-24" value="" style="endArrow=classic;html=1;rounded=0;" parent="1" edge="1">
          <mxGeometry width="50" height="50" relative="1" as="geometry">
            <mxPoint x="390" y="540" as="sourcePoint" />
            <mxPoint x="390" y="570" as="targetPoint" />
          </mxGeometry>
        </mxCell>
        <mxCell id="2Mn2ASOwUe4LuWI35HA7-25" value="do" style="rounded=0;whiteSpace=wrap;html=1;" parent="1" vertex="1">
          <mxGeometry x="319" y="190" width="120" height="30" as="geometry" />
        </mxCell>
        <mxCell id="2Mn2ASOwUe4LuWI35HA7-28" value="1" style="text;html=1;align=center;verticalAlign=middle;resizable=0;points=[];autosize=1;strokeColor=none;fillColor=none;" parent="1" vertex="1">
          <mxGeometry x="350" y="640" width="30" height="30" as="geometry" />
        </mxCell>
        <mxCell id="2Mn2ASOwUe4LuWI35HA7-32" value="1" style="text;html=1;align=center;verticalAlign=middle;resizable=0;points=[];autosize=1;strokeColor=none;fillColor=none;" parent="1" vertex="1">
          <mxGeometry x="315" y="378" width="30" height="30" as="geometry" />
        </mxCell>
        <mxCell id="2Mn2ASOwUe4LuWI35HA7-33" value="0" style="text;html=1;align=center;verticalAlign=middle;resizable=0;points=[];autosize=1;strokeColor=none;fillColor=none;" parent="1" vertex="1">
          <mxGeometry x="415" y="378" width="30" height="30" as="geometry" />
        </mxCell>
        <mxCell id="2Mn2ASOwUe4LuWI35HA7-34" value="0" style="text;html=1;align=center;verticalAlign=middle;resizable=0;points=[];autosize=1;strokeColor=none;fillColor=none;" parent="1" vertex="1">
          <mxGeometry x="430" y="585" width="30" height="30" as="geometry" />
        </mxCell>
        <mxCell id="2Mn2ASOwUe4LuWI35HA7-35" value="{" style="text;html=1;align=center;verticalAlign=middle;resizable=0;points=[];autosize=1;strokeColor=none;fillColor=none;" parent="1" vertex="1">
          <mxGeometry x="445" y="208" width="30" height="30" as="geometry" />
        </mxCell>
        <mxCell id="2Mn2ASOwUe4LuWI35HA7-36" value="}" style="text;html=1;align=center;verticalAlign=middle;resizable=0;points=[];autosize=1;strokeColor=none;fillColor=none;" parent="1" vertex="1">
          <mxGeometry x="395" y="538" width="30" height="30" as="geometry" />
        </mxCell>
        <mxCell id="2Mn2ASOwUe4LuWI35HA7-51" value="void han(int n, int start, int temp, int point, int&amp;amp; step, string towers[])" style="shape=process;whiteSpace=wrap;html=1;backgroundOutline=1;" parent="1" vertex="1">
          <mxGeometry x="1230" y="42" width="280" height="30" as="geometry" />
        </mxCell>
        <mxCell id="2Mn2ASOwUe4LuWI35HA7-52" style="edgeStyle=orthogonalEdgeStyle;rounded=0;orthogonalLoop=1;jettySize=auto;html=1;exitX=0.5;exitY=1;exitDx=0;exitDy=0;" parent="1" edge="1">
          <mxGeometry relative="1" as="geometry">
            <mxPoint x="1379.857142857143" y="102" as="targetPoint" />
            <mxPoint x="1380" y="72" as="sourcePoint" />
          </mxGeometry>
        </mxCell>
        <mxCell id="2Mn2ASOwUe4LuWI35HA7-53" style="edgeStyle=orthogonalEdgeStyle;rounded=0;orthogonalLoop=1;jettySize=auto;html=1;exitX=0;exitY=0.5;exitDx=0;exitDy=0;" parent="1" source="2Mn2ASOwUe4LuWI35HA7-55" edge="1">
          <mxGeometry relative="1" as="geometry">
            <mxPoint x="1270" y="202" as="targetPoint" />
          </mxGeometry>
        </mxCell>
        <mxCell id="2Mn2ASOwUe4LuWI35HA7-66" style="edgeStyle=orthogonalEdgeStyle;rounded=0;orthogonalLoop=1;jettySize=auto;html=1;exitX=1;exitY=0.5;exitDx=0;exitDy=0;" parent="1" source="2Mn2ASOwUe4LuWI35HA7-55" edge="1">
          <mxGeometry relative="1" as="geometry">
            <mxPoint x="1380" y="347" as="targetPoint" />
            <Array as="points">
              <mxPoint x="1530" y="142" />
              <mxPoint x="1530" y="347" />
            </Array>
          </mxGeometry>
        </mxCell>
        <mxCell id="2Mn2ASOwUe4LuWI35HA7-55" value="if (n == 1)&amp;nbsp;" style="rhombus;whiteSpace=wrap;html=1;" parent="1" vertex="1">
          <mxGeometry x="1340" y="102" width="80" height="80" as="geometry" />
        </mxCell>
        <mxCell id="2Mn2ASOwUe4LuWI35HA7-64" style="edgeStyle=orthogonalEdgeStyle;rounded=0;orthogonalLoop=1;jettySize=auto;html=1;exitX=0.455;exitY=0.952;exitDx=0;exitDy=0;exitPerimeter=0;" parent="1" source="F7-8MP7AwDZzjl3hGYo7-21" edge="1">
          <mxGeometry relative="1" as="geometry">
            <mxPoint x="1265.2222222222222" y="287" as="targetPoint" />
            <mxPoint x="1265" y="247" as="sourcePoint" />
          </mxGeometry>
        </mxCell>
        <mxCell id="2Mn2ASOwUe4LuWI35HA7-59" value="1" style="text;html=1;align=center;verticalAlign=middle;resizable=0;points=[];autosize=1;strokeColor=none;fillColor=none;" parent="1" vertex="1">
          <mxGeometry x="1315" y="110" width="30" height="30" as="geometry" />
        </mxCell>
        <mxCell id="2Mn2ASOwUe4LuWI35HA7-60" value="0" style="text;html=1;align=center;verticalAlign=middle;resizable=0;points=[];autosize=1;strokeColor=none;fillColor=none;" parent="1" vertex="1">
          <mxGeometry x="1415" y="110" width="30" height="30" as="geometry" />
        </mxCell>
        <mxCell id="2Mn2ASOwUe4LuWI35HA7-67" style="edgeStyle=orthogonalEdgeStyle;rounded=0;orthogonalLoop=1;jettySize=auto;html=1;exitX=0.5;exitY=1;exitDx=0;exitDy=0;" parent="1" source="2Mn2ASOwUe4LuWI35HA7-65" edge="1">
          <mxGeometry relative="1" as="geometry">
            <mxPoint x="1380" y="347" as="targetPoint" />
            <Array as="points">
              <mxPoint x="1265" y="347" />
            </Array>
          </mxGeometry>
        </mxCell>
        <mxCell id="2Mn2ASOwUe4LuWI35HA7-65" value="return;" style="ellipse;whiteSpace=wrap;html=1;" parent="1" vertex="1">
          <mxGeometry x="1205" y="287" width="120" height="40" as="geometry" />
        </mxCell>
        <mxCell id="2Mn2ASOwUe4LuWI35HA7-68" style="edgeStyle=orthogonalEdgeStyle;rounded=0;orthogonalLoop=1;jettySize=auto;html=1;exitX=0.5;exitY=1;exitDx=0;exitDy=0;" parent="1" edge="1">
          <mxGeometry relative="1" as="geometry">
            <mxPoint x="1379.8671428571429" y="375" as="targetPoint" />
            <mxPoint x="1380.01" y="345" as="sourcePoint" />
          </mxGeometry>
        </mxCell>
        <mxCell id="2Mn2ASOwUe4LuWI35HA7-69" value="&amp;nbsp;han(n - 1, start, point, temp, step, towers);" style="rounded=0;whiteSpace=wrap;html=1;" parent="1" vertex="1">
          <mxGeometry x="1260" y="375" width="240" height="42" as="geometry" />
        </mxCell>
        <mxCell id="2Mn2ASOwUe4LuWI35HA7-74" style="edgeStyle=orthogonalEdgeStyle;rounded=0;orthogonalLoop=1;jettySize=auto;html=1;exitX=0.5;exitY=1;exitDx=0;exitDy=0;entryX=0.548;entryY=-0.022;entryDx=0;entryDy=0;entryPerimeter=0;" parent="1" source="2Mn2ASOwUe4LuWI35HA7-69" edge="1">
          <mxGeometry relative="1" as="geometry">
            <mxPoint x="1380.4400000000005" y="436.01" as="targetPoint" />
          </mxGeometry>
        </mxCell>
        <mxCell id="2Mn2ASOwUe4LuWI35HA7-75" style="edgeStyle=orthogonalEdgeStyle;rounded=0;orthogonalLoop=1;jettySize=auto;html=1;exitX=0.5;exitY=1;exitDx=0;exitDy=0;" parent="1" edge="1" source="F7-8MP7AwDZzjl3hGYo7-22">
          <mxGeometry relative="1" as="geometry">
            <mxPoint x="1379.8671428571429" y="512" as="targetPoint" />
            <mxPoint x="1380.01" y="482" as="sourcePoint" />
          </mxGeometry>
        </mxCell>
        <mxCell id="2Mn2ASOwUe4LuWI35HA7-76" value="han(n - 1, temp, start, point, step, towers);" style="rounded=0;whiteSpace=wrap;html=1;" parent="1" vertex="1">
          <mxGeometry x="1260" y="512" width="240" height="42" as="geometry" />
        </mxCell>
        <mxCell id="2Mn2ASOwUe4LuWI35HA7-77" value="{" style="text;html=1;align=center;verticalAlign=middle;resizable=0;points=[];autosize=1;strokeColor=none;fillColor=none;" parent="1" vertex="1">
          <mxGeometry x="1345" y="75" width="30" height="30" as="geometry" />
        </mxCell>
        <mxCell id="2Mn2ASOwUe4LuWI35HA7-79" value="}" style="text;html=1;align=center;verticalAlign=middle;resizable=0;points=[];autosize=1;strokeColor=none;fillColor=none;" parent="1" vertex="1">
          <mxGeometry x="1475" y="555" width="30" height="30" as="geometry" />
        </mxCell>
        <mxCell id="2Mn2ASOwUe4LuWI35HA7-80" value="{" style="text;html=1;align=center;verticalAlign=middle;resizable=0;points=[];autosize=1;strokeColor=none;fillColor=none;" parent="1" vertex="1">
          <mxGeometry x="1245" y="145" width="30" height="30" as="geometry" />
        </mxCell>
        <mxCell id="2Mn2ASOwUe4LuWI35HA7-81" value="}" style="text;html=1;align=center;verticalAlign=middle;resizable=0;points=[];autosize=1;strokeColor=none;fillColor=none;" parent="1" vertex="1">
          <mxGeometry x="1275" y="345" width="30" height="30" as="geometry" />
        </mxCell>
        <mxCell id="2Mn2ASOwUe4LuWI35HA7-82" value="{" style="text;html=1;align=center;verticalAlign=middle;resizable=0;points=[];autosize=1;strokeColor=none;fillColor=none;" parent="1" vertex="1">
          <mxGeometry x="287" y="102" width="22" height="26" as="geometry" />
        </mxCell>
        <mxCell id="F7-8MP7AwDZzjl3hGYo7-1" value="string towers[3] = { &quot;&quot;, &quot;&quot;, &quot;&quot; };" style="rounded=0;whiteSpace=wrap;html=1;" vertex="1" parent="1">
          <mxGeometry x="480" y="680" width="190" height="30" as="geometry" />
        </mxCell>
        <mxCell id="F7-8MP7AwDZzjl3hGYo7-2" value="" style="edgeStyle=orthogonalEdgeStyle;rounded=0;orthogonalLoop=1;jettySize=auto;html=1;" edge="1" parent="1">
          <mxGeometry relative="1" as="geometry">
            <mxPoint x="568.9714285714285" y="710" as="sourcePoint" />
            <mxPoint x="568.9714285714285" y="730" as="targetPoint" />
          </mxGeometry>
        </mxCell>
        <mxCell id="F7-8MP7AwDZzjl3hGYo7-3" style="edgeStyle=orthogonalEdgeStyle;rounded=0;orthogonalLoop=1;jettySize=auto;html=1;exitX=1;exitY=0.5;exitDx=0;exitDy=0;" edge="1" source="F7-8MP7AwDZzjl3hGYo7-4" parent="1">
          <mxGeometry relative="1" as="geometry">
            <mxPoint x="818.9714285714285" y="840" as="targetPoint" />
          </mxGeometry>
        </mxCell>
        <mxCell id="F7-8MP7AwDZzjl3hGYo7-4" value="" style="verticalLabelPosition=bottom;verticalAlign=top;html=1;shape=hexagon;perimeter=hexagonPerimeter2;arcSize=6;size=0.11951219512195121;" vertex="1" parent="1">
          <mxGeometry x="464.47142857142853" y="730" width="205" height="50" as="geometry" />
        </mxCell>
        <mxCell id="F7-8MP7AwDZzjl3hGYo7-5" value="" style="edgeStyle=orthogonalEdgeStyle;rounded=0;orthogonalLoop=1;jettySize=auto;html=1;" edge="1" parent="1">
          <mxGeometry relative="1" as="geometry">
            <mxPoint x="568.7314285714285" y="780" as="sourcePoint" />
            <mxPoint x="568.9714285714285" y="800" as="targetPoint" />
          </mxGeometry>
        </mxCell>
        <mxCell id="F7-8MP7AwDZzjl3hGYo7-6" value="for (int i = 0; i &amp;lt; n; i++)" style="text;html=1;align=center;verticalAlign=middle;whiteSpace=wrap;rounded=0;" vertex="1" parent="1">
          <mxGeometry x="508.97142857142853" y="740" width="120" height="30" as="geometry" />
        </mxCell>
        <mxCell id="F7-8MP7AwDZzjl3hGYo7-7" value="" style="edgeStyle=orthogonalEdgeStyle;rounded=0;orthogonalLoop=1;jettySize=auto;html=1;entryX=0;entryY=0.5;entryDx=0;entryDy=0;" edge="1" target="F7-8MP7AwDZzjl3hGYo7-4" parent="1">
          <mxGeometry relative="1" as="geometry">
            <mxPoint x="568.9714285714285" y="830" as="sourcePoint" />
            <mxPoint x="448.97142857142853" y="800" as="targetPoint" />
            <Array as="points">
              <mxPoint x="569" y="920" />
              <mxPoint x="445" y="920" />
              <mxPoint x="445" y="755" />
            </Array>
          </mxGeometry>
        </mxCell>
        <mxCell id="F7-8MP7AwDZzjl3hGYo7-10" style="edgeStyle=orthogonalEdgeStyle;rounded=0;orthogonalLoop=1;jettySize=auto;html=1;exitX=0.5;exitY=1;exitDx=0;exitDy=0;entryX=0.5;entryY=0;entryDx=0;entryDy=0;" edge="1" parent="1" source="F7-8MP7AwDZzjl3hGYo7-8" target="F7-8MP7AwDZzjl3hGYo7-9">
          <mxGeometry relative="1" as="geometry" />
        </mxCell>
        <mxCell id="F7-8MP7AwDZzjl3hGYo7-8" value="char disk = &#39;0&#39; + i;&amp;nbsp;&amp;nbsp;" style="rounded=0;whiteSpace=wrap;html=1;" vertex="1" parent="1">
          <mxGeometry x="508.97142857142853" y="800" width="120" height="30" as="geometry" />
        </mxCell>
        <mxCell id="F7-8MP7AwDZzjl3hGYo7-9" value="towers[0] += disk;&amp;nbsp;" style="rounded=0;whiteSpace=wrap;html=1;" vertex="1" parent="1">
          <mxGeometry x="508.97142857142853" y="850" width="120" height="30" as="geometry" />
        </mxCell>
        <mxCell id="F7-8MP7AwDZzjl3hGYo7-11" value="{" style="text;html=1;align=center;verticalAlign=middle;resizable=0;points=[];autosize=1;strokeColor=none;fillColor=none;" vertex="1" parent="1">
          <mxGeometry x="475" y="778" width="30" height="30" as="geometry" />
        </mxCell>
        <mxCell id="F7-8MP7AwDZzjl3hGYo7-12" value="}" style="text;html=1;align=center;verticalAlign=middle;resizable=0;points=[];autosize=1;strokeColor=none;fillColor=none;" vertex="1" parent="1">
          <mxGeometry x="575" y="888" width="30" height="30" as="geometry" />
        </mxCell>
        <mxCell id="F7-8MP7AwDZzjl3hGYo7-14" style="edgeStyle=orthogonalEdgeStyle;rounded=0;orthogonalLoop=1;jettySize=auto;html=1;exitX=0.5;exitY=1;exitDx=0;exitDy=0;" edge="1" parent="1" source="F7-8MP7AwDZzjl3hGYo7-13">
          <mxGeometry relative="1" as="geometry">
            <mxPoint x="815" y="900" as="targetPoint" />
          </mxGeometry>
        </mxCell>
        <mxCell id="F7-8MP7AwDZzjl3hGYo7-13" value="cout &amp;lt;&amp;lt; &quot;Начальное положение:&quot; &amp;lt;&amp;lt; endl;" style="shape=parallelogram;perimeter=parallelogramPerimeter;whiteSpace=wrap;html=1;fixedSize=1;" vertex="1" parent="1">
          <mxGeometry x="670" y="840" width="290" height="40" as="geometry" />
        </mxCell>
        <mxCell id="F7-8MP7AwDZzjl3hGYo7-15" value="&amp;nbsp;print(towers);" style="rounded=0;whiteSpace=wrap;html=1;" vertex="1" parent="1">
          <mxGeometry x="750.0014285714285" y="900" width="120" height="30" as="geometry" />
        </mxCell>
        <mxCell id="F7-8MP7AwDZzjl3hGYo7-16" style="edgeStyle=orthogonalEdgeStyle;rounded=0;orthogonalLoop=1;jettySize=auto;html=1;exitX=0.5;exitY=1;exitDx=0;exitDy=0;" edge="1" parent="1">
          <mxGeometry relative="1" as="geometry">
            <mxPoint x="815" y="950" as="targetPoint" />
            <mxPoint x="815" y="930" as="sourcePoint" />
          </mxGeometry>
        </mxCell>
        <mxCell id="F7-8MP7AwDZzjl3hGYo7-18" style="edgeStyle=orthogonalEdgeStyle;rounded=0;orthogonalLoop=1;jettySize=auto;html=1;exitX=0.5;exitY=1;exitDx=0;exitDy=0;" edge="1" parent="1" source="F7-8MP7AwDZzjl3hGYo7-17">
          <mxGeometry relative="1" as="geometry">
            <mxPoint x="820" y="1010.0000000000002" as="targetPoint" />
          </mxGeometry>
        </mxCell>
        <mxCell id="F7-8MP7AwDZzjl3hGYo7-17" value="han(n, 0, 1, 2, step, towers);" style="rounded=0;whiteSpace=wrap;html=1;" vertex="1" parent="1">
          <mxGeometry x="730" y="950" width="180" height="30" as="geometry" />
        </mxCell>
        <mxCell id="F7-8MP7AwDZzjl3hGYo7-19" value="&amp;nbsp;return 0;" style="ellipse;whiteSpace=wrap;html=1;" vertex="1" parent="1">
          <mxGeometry x="760" y="1010" width="120" height="50" as="geometry" />
        </mxCell>
        <mxCell id="F7-8MP7AwDZzjl3hGYo7-20" value="}" style="text;html=1;align=center;verticalAlign=middle;resizable=0;points=[];autosize=1;strokeColor=none;fillColor=none;" vertex="1" parent="1">
          <mxGeometry x="885" y="1048" width="30" height="30" as="geometry" />
        </mxCell>
        <mxCell id="F7-8MP7AwDZzjl3hGYo7-21" value="disk(start, point, towers, step);" style="rounded=0;whiteSpace=wrap;html=1;" vertex="1" parent="1">
          <mxGeometry x="1156" y="202" width="240" height="42" as="geometry" />
        </mxCell>
        <mxCell id="F7-8MP7AwDZzjl3hGYo7-22" value="&amp;nbsp;disk(start, point, towers, step)" style="rounded=0;whiteSpace=wrap;html=1;" vertex="1" parent="1">
          <mxGeometry x="1257" y="436" width="240" height="42" as="geometry" />
        </mxCell>
        <mxCell id="F7-8MP7AwDZzjl3hGYo7-23" value="void print(string towers[])" style="shape=process;whiteSpace=wrap;html=1;backgroundOutline=1;" vertex="1" parent="1">
          <mxGeometry x="1764" y="36" width="280" height="30" as="geometry" />
        </mxCell>
        <mxCell id="F7-8MP7AwDZzjl3hGYo7-27" value="" style="edgeStyle=orthogonalEdgeStyle;rounded=0;orthogonalLoop=1;jettySize=auto;html=1;" edge="1" parent="1">
          <mxGeometry relative="1" as="geometry">
            <mxPoint x="1903" y="66" as="sourcePoint" />
            <mxPoint x="1903" y="86" as="targetPoint" />
          </mxGeometry>
        </mxCell>
        <mxCell id="F7-8MP7AwDZzjl3hGYo7-28" style="edgeStyle=orthogonalEdgeStyle;rounded=0;orthogonalLoop=1;jettySize=auto;html=1;exitX=0.5;exitY=1;exitDx=0;exitDy=0;" edge="1" parent="1" source="F7-8MP7AwDZzjl3hGYo7-29">
          <mxGeometry relative="1" as="geometry">
            <mxPoint x="1903.857142857143" y="156" as="targetPoint" />
          </mxGeometry>
        </mxCell>
        <mxCell id="F7-8MP7AwDZzjl3hGYo7-29" value="cout &amp;lt;&amp;lt; &quot;Состояние стержней:&quot; &amp;lt;&amp;lt; endl;" style="shape=parallelogram;perimeter=parallelogramPerimeter;whiteSpace=wrap;html=1;fixedSize=1;" vertex="1" parent="1">
          <mxGeometry x="1784" y="86" width="240" height="40" as="geometry" />
        </mxCell>
        <mxCell id="F7-8MP7AwDZzjl3hGYo7-30" value="" style="edgeStyle=orthogonalEdgeStyle;rounded=0;orthogonalLoop=1;jettySize=auto;html=1;" edge="1" parent="1">
          <mxGeometry relative="1" as="geometry">
            <mxPoint x="1903.9714285714285" y="137.98" as="sourcePoint" />
            <mxPoint x="1903.9714285714285" y="157.98" as="targetPoint" />
          </mxGeometry>
        </mxCell>
        <mxCell id="F7-8MP7AwDZzjl3hGYo7-31" style="edgeStyle=orthogonalEdgeStyle;rounded=0;orthogonalLoop=1;jettySize=auto;html=1;exitX=1;exitY=0.5;exitDx=0;exitDy=0;" edge="1" source="F7-8MP7AwDZzjl3hGYo7-32" parent="1">
          <mxGeometry relative="1" as="geometry">
            <mxPoint x="2156" y="233" as="targetPoint" />
          </mxGeometry>
        </mxCell>
        <mxCell id="F7-8MP7AwDZzjl3hGYo7-32" value="" style="verticalLabelPosition=bottom;verticalAlign=top;html=1;shape=hexagon;perimeter=hexagonPerimeter2;arcSize=6;size=0.11951219512195121;" vertex="1" parent="1">
          <mxGeometry x="1799.4714285714285" y="157.98" width="205" height="50" as="geometry" />
        </mxCell>
        <mxCell id="F7-8MP7AwDZzjl3hGYo7-33" value="" style="edgeStyle=orthogonalEdgeStyle;rounded=0;orthogonalLoop=1;jettySize=auto;html=1;" edge="1" parent="1">
          <mxGeometry relative="1" as="geometry">
            <mxPoint x="1903.7314285714285" y="207.98" as="sourcePoint" />
            <mxPoint x="1903.9714285714285" y="227.98" as="targetPoint" />
          </mxGeometry>
        </mxCell>
        <mxCell id="F7-8MP7AwDZzjl3hGYo7-34" value="for (int i = 0; i &amp;lt; 3; i++)&amp;nbsp;" style="text;html=1;align=center;verticalAlign=middle;whiteSpace=wrap;rounded=0;" vertex="1" parent="1">
          <mxGeometry x="1835" y="167.98" width="128.97" height="30" as="geometry" />
        </mxCell>
        <mxCell id="F7-8MP7AwDZzjl3hGYo7-35" value="" style="edgeStyle=orthogonalEdgeStyle;rounded=0;orthogonalLoop=1;jettySize=auto;html=1;entryX=0;entryY=0.5;entryDx=0;entryDy=0;" edge="1" target="F7-8MP7AwDZzjl3hGYo7-32" parent="1">
          <mxGeometry relative="1" as="geometry">
            <mxPoint x="1903.9714285714285" y="257.98" as="sourcePoint" />
            <mxPoint x="1783.9714285714285" y="227.98" as="targetPoint" />
            <Array as="points">
              <mxPoint x="1903.9714285714285" y="307.98" />
              <mxPoint x="1779.9714285714285" y="307.98" />
              <mxPoint x="1779.9714285714285" y="182.98" />
            </Array>
          </mxGeometry>
        </mxCell>
        <mxCell id="F7-8MP7AwDZzjl3hGYo7-36" value="a[i] = rand() % 25;" style="rounded=0;whiteSpace=wrap;html=1;" vertex="1" parent="1">
          <mxGeometry x="1843.9714285714285" y="227.98" width="120" height="30" as="geometry" />
        </mxCell>
        <mxCell id="F7-8MP7AwDZzjl3hGYo7-37" value="cout &amp;lt;&amp;lt; i + 1 &amp;lt;&amp;lt; &quot;: &quot; &amp;lt;&amp;lt; towers[i] &amp;lt;&amp;lt; endl;" style="shape=parallelogram;perimeter=parallelogramPerimeter;whiteSpace=wrap;html=1;fixedSize=1;" vertex="1" parent="1">
          <mxGeometry x="1791" y="227.98" width="240" height="40" as="geometry" />
        </mxCell>
        <mxCell id="F7-8MP7AwDZzjl3hGYo7-38" value="cout &amp;lt;&amp;lt; &quot;---------------------&quot; &amp;lt;&amp;lt; endl;" style="shape=parallelogram;perimeter=parallelogramPerimeter;whiteSpace=wrap;html=1;fixedSize=1;" vertex="1" parent="1">
          <mxGeometry x="2035" y="232" width="240" height="40" as="geometry" />
        </mxCell>
        <mxCell id="F7-8MP7AwDZzjl3hGYo7-40" value="void disk(int start, int point, string towers[], int&amp;amp; step)" style="shape=process;whiteSpace=wrap;html=1;backgroundOutline=1;" vertex="1" parent="1">
          <mxGeometry x="1797" y="408" width="280" height="30" as="geometry" />
        </mxCell>
        <mxCell id="F7-8MP7AwDZzjl3hGYo7-41" value="" style="edgeStyle=orthogonalEdgeStyle;rounded=0;orthogonalLoop=1;jettySize=auto;html=1;" edge="1" parent="1">
          <mxGeometry relative="1" as="geometry">
            <mxPoint x="1936" y="438" as="sourcePoint" />
            <mxPoint x="1936" y="458" as="targetPoint" />
          </mxGeometry>
        </mxCell>
        <mxCell id="F7-8MP7AwDZzjl3hGYo7-43" value="&amp;nbsp;int d_i = towers[start].length() - 1;" style="rounded=0;whiteSpace=wrap;html=1;" vertex="1" parent="1">
          <mxGeometry x="1843.97" y="459" width="185" height="31" as="geometry" />
        </mxCell>
        <mxCell id="F7-8MP7AwDZzjl3hGYo7-44" value="" style="edgeStyle=orthogonalEdgeStyle;rounded=0;orthogonalLoop=1;jettySize=auto;html=1;" edge="1" parent="1">
          <mxGeometry relative="1" as="geometry">
            <mxPoint x="1936" y="492" as="sourcePoint" />
            <mxPoint x="1936" y="512" as="targetPoint" />
          </mxGeometry>
        </mxCell>
        <mxCell id="F7-8MP7AwDZzjl3hGYo7-45" value="&lt;div&gt;char disk = towers[start][d_i];&lt;/div&gt;" style="rounded=0;whiteSpace=wrap;html=1;" vertex="1" parent="1">
          <mxGeometry x="1843.97" y="513" width="185" height="31" as="geometry" />
        </mxCell>
        <mxCell id="F7-8MP7AwDZzjl3hGYo7-46" value="" style="edgeStyle=orthogonalEdgeStyle;rounded=0;orthogonalLoop=1;jettySize=auto;html=1;" edge="1" parent="1">
          <mxGeometry relative="1" as="geometry">
            <mxPoint x="1936.53" y="544" as="sourcePoint" />
            <mxPoint x="1936.53" y="564" as="targetPoint" />
          </mxGeometry>
        </mxCell>
        <mxCell id="F7-8MP7AwDZzjl3hGYo7-47" value="&lt;div&gt;string temp = &quot;&quot;;&lt;/div&gt;" style="rounded=0;whiteSpace=wrap;html=1;" vertex="1" parent="1">
          <mxGeometry x="1844.5" y="565" width="185" height="31" as="geometry" />
        </mxCell>
        <mxCell id="F7-8MP7AwDZzjl3hGYo7-48" value="" style="edgeStyle=orthogonalEdgeStyle;rounded=0;orthogonalLoop=1;jettySize=auto;html=1;" edge="1" parent="1">
          <mxGeometry relative="1" as="geometry">
            <mxPoint x="1939.0014285714285" y="596" as="sourcePoint" />
            <mxPoint x="1939.0014285714285" y="616" as="targetPoint" />
          </mxGeometry>
        </mxCell>
        <mxCell id="F7-8MP7AwDZzjl3hGYo7-49" style="edgeStyle=orthogonalEdgeStyle;rounded=0;orthogonalLoop=1;jettySize=auto;html=1;exitX=1;exitY=0.5;exitDx=0;exitDy=0;" edge="1" source="F7-8MP7AwDZzjl3hGYo7-50" parent="1">
          <mxGeometry relative="1" as="geometry">
            <mxPoint x="2189" y="679" as="targetPoint" />
          </mxGeometry>
        </mxCell>
        <mxCell id="F7-8MP7AwDZzjl3hGYo7-50" value="" style="verticalLabelPosition=bottom;verticalAlign=top;html=1;shape=hexagon;perimeter=hexagonPerimeter2;arcSize=6;size=0.11951219512195121;" vertex="1" parent="1">
          <mxGeometry x="1834.5014285714285" y="616" width="205" height="50" as="geometry" />
        </mxCell>
        <mxCell id="F7-8MP7AwDZzjl3hGYo7-51" value="" style="edgeStyle=orthogonalEdgeStyle;rounded=0;orthogonalLoop=1;jettySize=auto;html=1;" edge="1" parent="1">
          <mxGeometry relative="1" as="geometry">
            <mxPoint x="1938.7614285714285" y="666" as="sourcePoint" />
            <mxPoint x="1939.0014285714285" y="686" as="targetPoint" />
          </mxGeometry>
        </mxCell>
        <mxCell id="F7-8MP7AwDZzjl3hGYo7-52" value="&amp;nbsp;for (int i = 0; i &amp;lt; d_i; i++)" style="text;html=1;align=center;verticalAlign=middle;whiteSpace=wrap;rounded=0;" vertex="1" parent="1">
          <mxGeometry x="1867" y="626" width="144" height="30" as="geometry" />
        </mxCell>
        <mxCell id="F7-8MP7AwDZzjl3hGYo7-53" value="" style="edgeStyle=orthogonalEdgeStyle;rounded=0;orthogonalLoop=1;jettySize=auto;html=1;entryX=0;entryY=0.5;entryDx=0;entryDy=0;" edge="1" target="F7-8MP7AwDZzjl3hGYo7-50" parent="1">
          <mxGeometry relative="1" as="geometry">
            <mxPoint x="1939.0014285714285" y="716" as="sourcePoint" />
            <mxPoint x="1819.0014285714285" y="686" as="targetPoint" />
            <Array as="points">
              <mxPoint x="1939.0014285714285" y="766" />
              <mxPoint x="1815.0014285714285" y="766" />
              <mxPoint x="1815.0014285714285" y="641" />
            </Array>
          </mxGeometry>
        </mxCell>
        <mxCell id="F7-8MP7AwDZzjl3hGYo7-54" value="temp += towers[start][i];" style="rounded=0;whiteSpace=wrap;html=1;" vertex="1" parent="1">
          <mxGeometry x="1866" y="686" width="154" height="30" as="geometry" />
        </mxCell>
        <mxCell id="F7-8MP7AwDZzjl3hGYo7-56" style="edgeStyle=orthogonalEdgeStyle;rounded=0;orthogonalLoop=1;jettySize=auto;html=1;exitX=0.5;exitY=1;exitDx=0;exitDy=0;" edge="1" parent="1" source="F7-8MP7AwDZzjl3hGYo7-55" target="F7-8MP7AwDZzjl3hGYo7-57">
          <mxGeometry relative="1" as="geometry">
            <mxPoint x="2191" y="734.7241379310344" as="targetPoint" />
          </mxGeometry>
        </mxCell>
        <mxCell id="F7-8MP7AwDZzjl3hGYo7-55" value="towers[start] = temp;" style="rounded=0;whiteSpace=wrap;html=1;" vertex="1" parent="1">
          <mxGeometry x="2114" y="680" width="154" height="30" as="geometry" />
        </mxCell>
        <mxCell id="F7-8MP7AwDZzjl3hGYo7-57" value="cout &amp;lt;&amp;lt; &quot;Шаг &quot; &amp;lt;&amp;lt; step++ &amp;lt;&amp;lt; &quot;: Переместить диск &quot;&lt;div&gt;&amp;nbsp;&amp;lt;&amp;lt; disk &amp;lt;&amp;lt; &quot; с &quot; &amp;lt;&amp;lt; start + 1 &amp;lt;&amp;lt; &quot; на &quot; &amp;lt;&amp;lt; point + 1 &amp;lt;&amp;lt; endl;&lt;/div&gt;" style="shape=parallelogram;perimeter=parallelogramPerimeter;whiteSpace=wrap;html=1;fixedSize=1;" vertex="1" parent="1">
          <mxGeometry x="2006" y="746" width="371" height="46" as="geometry" />
        </mxCell>
        <mxCell id="F7-8MP7AwDZzjl3hGYo7-58" value="" style="edgeStyle=orthogonalEdgeStyle;rounded=0;orthogonalLoop=1;jettySize=auto;html=1;" edge="1" parent="1">
          <mxGeometry relative="1" as="geometry">
            <mxPoint x="2191.03" y="792" as="sourcePoint" />
            <mxPoint x="2191.03" y="812" as="targetPoint" />
          </mxGeometry>
        </mxCell>
        <mxCell id="F7-8MP7AwDZzjl3hGYo7-59" value="&lt;div&gt;&amp;nbsp;print(towers);&lt;/div&gt;" style="rounded=0;whiteSpace=wrap;html=1;" vertex="1" parent="1">
          <mxGeometry x="2099" y="813" width="185" height="31" as="geometry" />
        </mxCell>
      </root>
    </mxGraphModel>
  </diagram>
</mxfile>
